<svg width="28" height="28" viewBox="0 0 28 28" fill="none" xmlns="http://www.w3.org/2000/svg">
<path d="M5.37761 20.865L4.40887 21.8338C4.15475 22.0894 4.01211 22.4352 4.01211 22.7957C4.01211 23.1561 4.15475 23.502 4.40887 23.7576C4.66452 24.0117 5.01033 24.1544 5.37079 24.1544C5.73125 24.1544 6.07706 24.0117 6.3327 23.7576L7.30144 22.7889C7.52497 22.5278 7.64177 22.1921 7.62851 21.8487C7.61524 21.5053 7.47289 21.1796 7.22989 20.9366C6.9869 20.6936 6.66116 20.5512 6.31777 20.538C5.97438 20.5247 5.63863 20.6415 5.37761 20.865ZM4.50438 14.0429C4.50438 13.6811 4.36063 13.334 4.10476 13.0782C3.84888 12.8223 3.50183 12.6785 3.13997 12.6785H1.77555C1.41368 12.6785 1.06664 12.8223 0.810761 13.0782C0.554883 13.334 0.411133 13.6811 0.411133 14.0429C0.411133 14.4048 0.554883 14.7519 0.810761 15.0077C1.06664 15.2636 1.41368 15.4074 1.77555 15.4074H3.13997C3.50183 15.4074 3.84888 15.2636 4.10476 15.0077C4.36063 14.7519 4.50438 14.4048 4.50438 14.0429ZM14.0553 4.49202C14.4172 4.49202 14.7642 4.34827 15.0201 4.0924C15.276 3.83652 15.4197 3.48947 15.4197 3.12761V1.76319C15.4197 1.40132 15.276 1.05428 15.0201 0.798402C14.7642 0.542524 14.4172 0.398773 14.0553 0.398773C13.6934 0.398773 13.3464 0.542524 13.0905 0.798402C12.8346 1.05428 12.6909 1.40132 12.6909 1.76319V3.12761C12.6909 3.48947 12.8346 3.83652 13.0905 4.0924C13.3464 4.34827 13.6934 4.49202 14.0553 4.49202ZM5.37761 7.28908C5.63175 7.54115 5.97476 7.68325 6.3327 7.68476C6.51227 7.6858 6.69027 7.65138 6.85651 7.58348C7.02275 7.51558 7.17395 7.41554 7.30144 7.28908C7.55556 7.03344 7.6982 6.68762 7.6982 6.32717C7.6982 5.96671 7.55556 5.62089 7.30144 5.36525L6.3327 4.39652C6.07169 4.17299 5.73594 4.05619 5.39255 4.06945C5.04916 4.08271 4.72342 4.22507 4.48042 4.46806C4.23743 4.71106 4.09507 5.0368 4.08181 5.38019C4.06855 5.72358 4.18535 6.05933 4.40887 6.32034L5.37761 7.28908ZM21.7506 7.68476C22.1086 7.68325 22.4516 7.54115 22.7057 7.28908L23.6744 6.32034C23.8173 6.19803 23.9333 6.04751 24.0152 5.87823C24.0971 5.70896 24.1431 5.52458 24.1504 5.33667C24.1576 5.14877 24.1259 4.96139 24.0574 4.7863C23.9888 4.61121 23.8847 4.45219 23.7517 4.31922C23.6188 4.18625 23.4598 4.0822 23.2847 4.01361C23.1096 3.94501 22.9222 3.91335 22.7343 3.92061C22.5464 3.92787 22.362 3.97389 22.1927 4.05579C22.0235 4.13768 21.8729 4.25369 21.7506 4.39652L20.8774 5.36525C20.6233 5.62089 20.4806 5.96671 20.4806 6.32717C20.4806 6.68762 20.6233 7.03344 20.8774 7.28908C21.1179 7.52835 21.439 7.66941 21.7779 7.68476H21.7506ZM26.3351 12.6785H24.9706C24.6088 12.6785 24.2617 12.8223 24.0059 13.0782C23.75 13.334 23.6062 13.6811 23.6062 14.0429C23.6062 14.4048 23.75 14.7519 24.0059 15.0077C24.2617 15.2636 24.6088 15.4074 24.9706 15.4074H26.3351C26.6969 15.4074 27.044 15.2636 27.2998 15.0077C27.5557 14.7519 27.6995 14.4048 27.6995 14.0429C27.6995 13.6811 27.5557 13.334 27.2998 13.0782C27.044 12.8223 26.6969 12.6785 26.3351 12.6785ZM14.0553 23.5939C13.6934 23.5939 13.3464 23.7376 13.0905 23.9935C12.8346 24.2494 12.6909 24.5964 12.6909 24.9583V26.3227C12.6909 26.6846 12.8346 27.0316 13.0905 27.2875C13.3464 27.5434 13.6934 27.6871 14.0553 27.6871C14.4172 27.6871 14.7642 27.5434 15.0201 27.2875C15.276 27.0316 15.4197 26.6846 15.4197 26.3227V24.9583C15.4197 24.5964 15.276 24.2494 15.0201 23.9935C14.7642 23.7376 14.4172 23.5939 14.0553 23.5939ZM22.733 20.865C22.4738 20.7208 22.1746 20.6651 21.8809 20.7061C21.5871 20.7472 21.3147 20.8829 21.105 21.0926C20.8952 21.3024 20.7596 21.5747 20.7185 21.8685C20.6774 22.1623 20.7332 22.4614 20.8774 22.7206L21.8461 23.6894C22.1018 23.9435 22.4476 24.0861 22.808 24.0861C23.1685 24.0861 23.5143 23.9435 23.77 23.6894C24.0241 23.4337 24.1667 23.0879 24.1667 22.7275C24.1667 22.367 24.0241 22.0212 23.77 21.7655L22.733 20.865ZM14.0553 6.53865C12.5711 6.53865 11.1202 6.97877 9.88614 7.80335C8.65207 8.62793 7.69022 9.79994 7.12224 11.1712C6.55426 12.5424 6.40565 14.0513 6.6952 15.507C6.98476 16.9627 7.69947 18.2998 8.74897 19.3493C9.79846 20.3988 11.1356 21.1135 12.5913 21.403C14.047 21.6926 15.5558 21.544 16.9271 20.976C18.2983 20.408 19.4703 19.4462 20.2949 18.2121C21.1195 16.978 21.5596 15.5272 21.5596 14.0429C21.556 12.0538 20.7642 10.1471 19.3577 8.74059C17.9511 7.33404 16.0445 6.54226 14.0553 6.53865ZM14.0553 18.8184C13.1108 18.8184 12.1875 18.5383 11.4022 18.0136C10.6169 17.4889 10.0048 16.743 9.64335 15.8704C9.28191 14.9978 9.18734 14.0376 9.3716 13.1113C9.55587 12.1849 10.0107 11.334 10.6785 10.6662C11.3464 9.99833 12.1973 9.54351 13.1237 9.35924C14.05 9.17498 15.0102 9.26955 15.8828 9.63099C16.7554 9.99244 17.5012 10.6045 18.026 11.3898C18.5507 12.1752 18.8308 13.0984 18.8308 14.0429C18.8308 15.3095 18.3276 16.5241 17.4321 17.4197C16.5365 18.3153 15.3218 18.8184 14.0553 18.8184Z" fill="#F5F073"/>
<circle cx="14.0553" cy="14.043" r="5.11656" fill="#F5F073"/>
</svg>
